<?xml version="1.0" encoding="utf-8"?>
<!-- Generator: Adobe Illustrator 15.1.0, SVG Export Plug-In . SVG Version: 6.00 Build 0)  -->
<!DOCTYPE svg PUBLIC "-//W3C//DTD SVG 1.1//EN" "http://www.w3.org/Graphics/SVG/1.1/DTD/svg11.dtd">
<svg version="1.1" id="Layer_1" xmlns="http://www.w3.org/2000/svg" xmlns:xlink="http://www.w3.org/1999/xlink" x="0px" y="0px"
	 width="102px" height="39px" viewBox="0 0 102 39" enable-background="new 0 0 102 39" xml:space="preserve">
<g>
	<g id="Logo">
		<path fill="#FFFFFF" d="M4.823,25.488H0.04L7.116,4.162h4.98l6.88,21.327h-5.799l-0.819-2.947H5.708L4.823,25.488z M9.835,13.761
			l-0.687-3.734l-0.787,3.734l-1.572,5.242h4.554L9.835,13.761z"/>
		<path fill="#FFFFFF" d="M28.94,1.967h5.143v23.521h-3.604l-1.277-1.963l-1.638,2.029c-0.393,0.164-1.212,0.395-1.9,0.395
			c-4.456,0-6.749-3.113-6.749-8.978c0-7.011,3.407-9.304,6.683-9.304c1.508,0,2.556,0.425,3.342,0.982V1.967z M28.94,12.287
			c-0.525-0.262-1.179-0.525-2.163-0.525c-1.67,0-2.555,0.722-2.555,3.965v2.653c0,3.113,0.852,4.325,2.588,4.325
			c0.982,0,1.572-0.557,2.129-1.179V12.287z"/>
		<path fill="#FFFFFF" d="M36.966,1.967h5.111v23.521h-5.111V1.967z"/>
		<path fill="#FFFFFF" d="M44.862,3.801c0-1.704,1.277-2.687,2.817-2.687c1.54,0,2.817,0.983,2.817,2.687s-1.278,2.654-2.817,2.654
			C46.14,6.455,44.862,5.505,44.862,3.801z M45.124,8.06h5.111v17.428h-5.111V8.06z"/>
		<path fill="#FFFFFF" d="M55.706,25.588h-2.62V1.967h5.144v7.109c0.885-0.852,2.063-1.408,3.735-1.408
			c4.258,0,6.257,3.341,6.257,9.401c0,5.669-1.966,8.88-6.421,8.88c-1.377,0-2.522-0.395-3.178-0.723l-1.442-2.029L55.706,25.588z
			 M58.229,22.115c0.688,0.326,1.474,0.59,2.393,0.59c1.506,0,2.292-1.146,2.292-4.227v-2.424c0-3.276-0.59-4.292-2.423-4.292
			c-0.952,0-1.705,0.493-2.262,0.918V22.115z"/>
		<path fill="#FFFFFF" d="M76.97,8.125c0.655-0.262,1.342-0.458,2.26-0.458c1.081,0,1.738,0.359,2.031,0.654l-0.852,4.521
			c-0.492-0.197-1.212-0.393-2.425-0.393c-1.015,0-2.031,0.196-2.851,0.426v12.612h-5.143V8.06h3.603l1.476,2.753L76.97,8.125z"/>
		<path fill="#FFFFFF" d="M82.146,3.801c0-1.704,1.278-2.687,2.817-2.687s2.818,0.983,2.818,2.687s-1.279,2.654-2.818,2.654
			S82.146,5.505,82.146,3.801z M82.407,8.06h5.112v17.428h-5.112V8.06z"/>
		<path fill="#FFFFFF" d="M89.649,24.835l0.425-3.572c1.081,0.393,2.522,0.917,4.259,0.917c2.063,0,2.817-0.392,2.817-1.604
			c0-1.376-0.95-1.114-3.734-1.704c-2.359-0.492-4.097-1.835-4.097-5.438c0-4.063,2.62-5.765,6.717-5.765
			c2.489,0,4.193,0.523,5.242,1.047l-0.721,3.702c-1.31-0.393-2.621-0.688-3.898-0.688c-2.063,0-2.721,0.295-2.721,1.409
			c0,1.146,0.854,1.212,3.672,1.769c2.783,0.557,4.39,1.835,4.39,5.308c0,3.571-2.261,5.734-6.914,5.734
			C92.466,25.949,90.695,25.324,89.649,24.835z"/>
	</g>
	<g id="Finska">
		<path fill="#FFFFFF" d="M2.929,38.199v-0.678h0.742v-5.33H2.956v-0.689h2.267v0.689H4.499v5.33h0.724v0.678H2.929z M6.464,38.199
			v-0.678h0.564l-2.492-2.906l2.37-2.424H6.323v-0.689h2.304v0.689H7.893l-2.351,2.387L8.1,37.521h0.724v0.678H6.464z"/>
		<path fill="#FFFFFF" d="M11.1,32.191v5.33h0.751v0.678H9.52v-0.678h0.743v-5.33H9.51v-0.689h2.37v0.689H11.1z"/>
		<path fill="#FFFFFF" d="M17.427,38.293c-0.959,0-1.109-0.697-1.109-1.383c0-1.107-0.255-1.805-1.345-1.805h-0.847v2.416h0.63
			v0.678h-2.116v-0.678h0.658v-5.33h-0.687v-0.689h2.83c1.157,0,2.013,0.707,2.013,1.75c0,0.734-0.423,1.363-1.147,1.598
			c0.301,0.17,0.489,0.379,0.612,0.623c0.216,0.42,0.216,0.949,0.244,1.541c0.02,0.422,0.122,0.582,0.414,0.582
			c0.132,0,0.329-0.074,0.517-0.16l0.198,0.65C17.897,38.236,17.662,38.293,17.427,38.293z M15.358,32.191h-1.232v2.227h1.279
			c0.818,0,1.185-0.553,1.185-1.107C16.59,32.746,16.195,32.191,15.358,32.191z"/>
		<path fill="#FFFFFF" d="M19.852,38.059c-0.018,0.047-0.027,0.074-0.027,0.102c0,0.039,0.027,0.057,0.111,0.057
			c0.226,0,0.424-0.123,0.546-0.375c0.085-0.17,0.113-0.414,0.113-0.969v-4.682H19.73v-0.689h2.557v0.689h-0.865v4.672
			c0,0.451-0.019,0.611-0.046,0.762c-0.151,0.818-0.688,1.26-1.43,1.26c-0.818,0-1.176-0.498-1.176-0.979
			c0-0.338,0.235-0.609,0.565-0.609c0.329,0,0.564,0.234,0.564,0.525C19.899,37.906,19.881,37.982,19.852,38.059z"/>
		<path fill="#FFFFFF" d="M25.955,38.367c-1.872,0-2.924-1.664-2.924-3.518c0-1.834,1.053-3.516,2.924-3.516
			c1.88,0,2.934,1.682,2.934,3.525C28.889,36.721,27.816,38.367,25.955,38.367z M25.955,32.039c-1.354,0-2.051,1.363-2.051,2.811
			c0,1.479,0.715,2.822,2.051,2.822c1.363,0,2.059-1.355,2.059-2.813C28.013,33.395,27.299,32.039,25.955,32.039z"/>
		<path fill="#FFFFFF" d="M30.439,38.059c-0.02,0.047-0.028,0.074-0.028,0.102c0,0.039,0.028,0.057,0.113,0.057
			c0.226,0,0.423-0.123,0.545-0.375c0.084-0.17,0.113-0.414,0.113-0.969v-4.682h-0.865v-0.689h2.558v0.689h-0.865v4.672
			c0,0.451-0.019,0.611-0.047,0.762c-0.15,0.818-0.687,1.26-1.43,1.26c-0.817,0-1.175-0.498-1.175-0.979
			c0-0.338,0.235-0.609,0.564-0.609s0.565,0.234,0.565,0.525C30.487,37.906,30.467,37.982,30.439,38.059z"/>
		<path fill="#FFFFFF" d="M38.516,38.199h-5.003v-0.678h0.743v-5.33h-0.743v-0.689h4.88l0.038,1.762l-0.752,0.018l-0.057-0.725
			c-0.028-0.328-0.047-0.365-0.347-0.365h-2.192v2.273h1.12v-0.762h0.752v2.24h-0.752v-0.811h-1.12v2.389h2.294
			c0.339,0,0.386-0.047,0.424-0.348l0.123-0.969l0.743,0.029C38.61,36.881,38.572,37.551,38.516,38.199z"/>
		<path fill="#FFFFFF" d="M45.182,32.191v6.102h-0.659l-3.46-5.424v4.652h0.78v0.678h-2.35v-0.678h0.79v-5.33h-0.79v-0.689h1.646
			l3.263,5.109v-4.42h-0.725v-0.689h2.276v0.689H45.182z"/>
		<path fill="#FFFFFF" d="M54.198,32.191l-1.842,3.131v2.199h0.836v0.678h-2.492v-0.678h0.837v-2.199l-1.824-3.131h-0.791v-0.689
			h2.351v0.689h-0.629l1.343,2.311l1.326-2.311h-0.62v-0.689h2.267v0.689H54.198z"/>
		<path fill="#FFFFFF" d="M57.837,38.367c-0.641,0-1.279-0.273-1.532-0.574v0.406H55.57v-1.854h0.668
			c0.112,0.893,0.828,1.336,1.523,1.336c0.874,0,1.383-0.508,1.383-1.27c0-1.74-3.555-0.846-3.555-3.236
			c0-1.145,0.837-1.832,1.927-1.832c0.611,0,1.139,0.264,1.364,0.535v-0.377h0.743v1.826h-0.668
			c-0.168-0.922-0.809-1.309-1.363-1.309c-0.771,0-1.166,0.508-1.166,1.092c0,1.701,3.555,0.779,3.555,3.234
			C59.981,37.576,59.088,38.367,57.837,38.367z"/>
		<path fill="#FFFFFF" d="M65.631,33.439l-0.046-0.957c-0.021-0.303-0.058-0.311-0.35-0.311h-1.222v5.35h0.754v0.678h-2.313v-0.678
			h0.722v-5.35h-1.222c-0.301,0-0.319,0.027-0.339,0.311l-0.056,0.957l-0.716-0.018l0.021-1.92h5.464l0.027,1.92L65.631,33.439z"/>
		<path fill="#FFFFFF" d="M70.502,38.199v-0.678h0.733l-0.565-1.598h-2.266l-0.534,1.598h0.714v0.678h-2.21v-0.678h0.686
			l2.116-6.131h0.799l2.146,6.131h0.725v0.678H70.502z M68.706,30.59c-0.282,0-0.499-0.225-0.499-0.496
			c0-0.273,0.217-0.508,0.499-0.508c0.272,0,0.508,0.234,0.508,0.508C69.214,30.365,68.979,30.59,68.706,30.59z M69.542,32.633
			l-0.884,2.604h1.787L69.542,32.633z M70.417,30.59c-0.281,0-0.499-0.225-0.499-0.496c0-0.273,0.218-0.508,0.499-0.508
			c0.272,0,0.507,0.234,0.507,0.508C70.924,30.365,70.689,30.59,70.417,30.59z"/>
		<path fill="#FFFFFF" d="M78.118,32.191c-0.715,2.039-1.439,4.072-2.164,6.111h-0.733l-2.106-6.111h-0.732v-0.689h2.351v0.689
			h-0.724l1.607,4.775l1.693-4.775h-0.714v-0.689h2.218v0.689H78.118z"/>
		<path fill="#FFFFFF" d="M81.041,32.191v5.33h0.752v0.678h-2.332v-0.678h0.742v-5.33h-0.751v-0.689h2.37v0.689H81.041z"/>
		<path fill="#FFFFFF" d="M87.246,38.199h-4.692v-0.678h0.659v-5.33h-0.659v-0.689h2.145v0.689h-0.649v5.33h2.07
			c0.347,0,0.374-0.037,0.413-0.348c0.056-0.406,0.103-0.811,0.149-1.213l0.726,0.029L87.246,38.199z"/>
		<path fill="#FFFFFF" d="M92.917,38.199h-4.691v-0.678h0.656v-5.33h-0.656v-0.689h2.143v0.689H89.72v5.33h2.068
			c0.348,0,0.377-0.037,0.415-0.348c0.056-0.406,0.103-0.811,0.148-1.213l0.725,0.029L92.917,38.199z"/>
		<path fill="#FFFFFF" d="M98.896,38.199h-5.003v-0.678h0.743v-5.33h-0.743v-0.689h4.881l0.038,1.762l-0.754,0.018l-0.056-0.725
			c-0.028-0.328-0.046-0.365-0.348-0.365h-2.19v2.273h1.118v-0.762h0.753v2.24h-0.753v-0.811h-1.118v2.389h2.294
			c0.338,0,0.386-0.047,0.423-0.348l0.122-0.969l0.743,0.029C98.989,36.881,98.952,37.551,98.896,38.199z"/>
	</g>
</g>
</svg>
